<?xml version="1.0" standalone="no"?>
<!DOCTYPE svg PUBLIC "-//W3C//DTD SVG 20010904//EN"
 "http://www.w3.org/TR/2001/REC-SVG-20010904/DTD/svg10.dtd">
<svg version="1.0" xmlns="http://www.w3.org/2000/svg"
 width="1920.000000pt" height="1080.000000pt" viewBox="0 0 1920.000000 1080.000000"
 preserveAspectRatio="xMidYMid meet">

<g transform="translate(0.000000,1080.000000) scale(0.100000,-0.100000)"
fill="#000000" stroke="none">
<path d="M0 5400 l0 -5400 9600 0 9600 0 0 5400 0 5400 -2360 0 -2360 0 0
-132 c0 -73 -5 -162 -11 -198 -6 -36 -14 -103 -18 -150 -5 -47 -12 -93 -16
-102 -5 -12 -3 -18 6 -18 9 0 10 -3 3 -8 -6 -4 -18 -45 -26 -92 -20 -105 -60
-261 -93 -360 -14 -41 -25 -85 -25 -97 0 -13 -3 -23 -7 -23 -9 0 -50 -129 -46
-142 2 -4 -4 -8 -13 -8 -8 0 -12 -5 -9 -10 4 -6 -3 -27 -15 -47 -11 -20 -22
-49 -23 -64 -1 -16 -5 -29 -9 -29 -4 0 -15 -14 -24 -31 -12 -24 -13 -34 -4
-39 8 -5 5 -9 -9 -13 -13 -3 -21 -13 -21 -25 0 -12 -5 -24 -10 -27 -16 -10
-42 -78 -37 -97 3 -10 0 -15 -8 -12 -7 3 -16 -4 -20 -15 -3 -12 -11 -21 -16
-21 -16 0 -10 -18 9 -23 14 -4 13 -5 -4 -6 -12 -1 -27 -13 -35 -28 -7 -16 -21
-39 -31 -52 -10 -13 -15 -27 -13 -31 3 -5 1 -11 -5 -15 -12 -7 -80 -112 -79
-121 0 -4 -3 -10 -8 -13 -13 -9 -73 -88 -73 -95 0 -6 -39 -65 -50 -76 -13 -12
-70 -88 -70 -93 0 -3 -14 -19 -31 -36 -17 -17 -28 -35 -24 -41 3 -5 0 -10 -7
-10 -12 0 -37 -26 -98 -100 -54 -64 -352 -360 -364 -360 -2 0 -28 -24 -57 -53
-30 -29 -72 -66 -94 -82 -22 -16 -51 -40 -64 -52 -13 -13 -28 -23 -33 -23 -5
0 -6 -4 -3 -10 3 -5 -3 -10 -14 -10 -11 0 -31 -10 -45 -22 -41 -38 -60 -52
-89 -67 -15 -8 -27 -20 -27 -28 0 -7 -5 -13 -11 -13 -23 0 -79 -33 -79 -46 0
-8 -14 -17 -31 -21 -17 -3 -36 -14 -42 -24 -7 -11 -17 -19 -24 -19 -7 0 -13
-4 -13 -10 0 -5 -7 -10 -16 -10 -8 0 -30 -10 -47 -23 -18 -13 -49 -32 -70 -43
-21 -10 -47 -27 -57 -36 -11 -10 -25 -18 -32 -18 -7 0 -28 -9 -46 -20 -18 -11
-39 -20 -47 -20 -8 0 -15 -12 -17 -27 -4 -34 -36 -43 -55 -17 -7 10 -13 12
-13 5 0 -15 -206 -114 -220 -106 -6 3 -10 1 -10 -5 0 -6 -6 -8 -12 -4 -10 6
-10 4 0 -7 18 -20 15 -29 -13 -29 -14 0 -25 5 -25 12 0 7 -5 6 -12 -4 -7 -8
-42 -25 -78 -38 -36 -13 -69 -27 -74 -32 -6 -4 -25 -8 -44 -8 -29 0 -32 -2
-23 -14 15 -18 7 -22 -54 -30 -27 -4 -63 -16 -78 -27 -18 -13 -38 -19 -53 -16
-13 2 -24 1 -24 -4 0 -4 -16 -11 -35 -15 -33 -6 -34 -8 -18 -20 15 -11 16 -15
4 -23 -11 -7 -10 -12 8 -22 11 -8 21 -24 21 -36 0 -12 5 -25 10 -28 14 -9 3
-92 -16 -122 -13 -20 -13 -23 0 -23 12 0 13 -6 7 -39 -1 -2 -8 2 -16 9 -13 11
-19 4 -40 -44 -14 -31 -25 -58 -25 -60 0 -11 85 17 97 32 11 14 14 15 22 3 5
-8 7 -19 5 -25 -2 -6 9 -19 26 -29 31 -19 60 -63 60 -92 0 -21 -48 -65 -71
-65 -20 0 -24 -4 -33 -42 -5 -24 -3 -28 15 -28 14 0 19 -5 17 -17 -2 -10 -12
-18 -23 -18 -14 0 -27 -14 -42 -46 -36 -75 -154 -169 -213 -169 -11 0 -20 -4
-20 -10 0 -5 -5 -10 -11 -10 -5 0 -7 5 -4 10 9 14 -39 12 -53 -2 -7 -7 -13 -9
-13 -5 -1 4 -2 10 -3 15 -2 13 -17 32 -25 32 -5 0 -14 -14 -21 -30 -16 -37
-74 -90 -100 -90 -11 0 -20 -4 -20 -10 0 -5 15 -10 33 -10 19 0 53 -12 78 -28
24 -15 53 -32 64 -39 11 -6 19 -17 17 -23 -4 -17 34 -48 66 -55 59 -12 97 -14
109 -3 10 8 18 7 31 -6 22 -19 58 -21 69 -2 16 26 117 37 191 21 35 -8 37 -14
20 -61 -9 -25 -8 -39 2 -63 15 -38 64 -81 92 -81 11 0 42 -12 69 -27 115 -62
127 -186 28 -285 -35 -35 -61 -51 -103 -63 -63 -18 -85 -16 -194 22 -40 14
-74 24 -75 22 -1 -2 -7 -13 -13 -25 -8 -12 -10 -45 -7 -85 5 -56 2 -69 -18
-101 -37 -58 -123 -84 -183 -57 -29 13 -39 44 -29 90 l6 34 -24 -17 c-19 -13
-24 -24 -23 -57 0 -23 5 -46 11 -52 5 -5 56 -21 114 -35 117 -28 126 -33 162
-90 24 -39 29 -42 88 -48 83 -10 167 -53 239 -124 32 -31 76 -69 99 -85 77
-51 111 -137 91 -227 -60 -273 -81 -325 -166 -421 -34 -39 -43 -55 -38 -73 8
-33 -30 -67 -108 -96 -24 -8 -28 -15 -28 -47 -2 -142 -61 -283 -119 -283 -25
0 -32 -9 -74 -94 -51 -102 -100 -168 -153 -204 -37 -25 -42 -43 -19 -62 24
-20 19 -77 -10 -108 -14 -15 -25 -31 -25 -37 0 -6 -9 -16 -20 -23 -20 -12 -28
-42 -11 -42 5 0 22 -5 38 -11 19 -7 23 -13 15 -18 -10 -6 -9 -14 3 -37 8 -16
15 -35 15 -43 0 -7 13 -30 30 -51 40 -50 51 -84 52 -156 2 -98 -44 -156 -154
-193 l-53 -18 -12 -64 c-20 -105 -17 -125 20 -163 47 -46 69 -100 75 -177 5
-77 -7 -123 -45 -163 -21 -23 -24 -32 -15 -45 50 -70 64 -103 64 -155 1 -73
-29 -124 -103 -176 -32 -22 -84 -63 -116 -91 -32 -27 -96 -69 -143 -92 -80
-39 -90 -41 -170 -41 -88 1 -145 18 -208 62 -22 16 -52 21 -167 26 -227 11
-217 13 -308 -42 -69 -41 -83 -54 -88 -81 -9 -45 -34 -68 -89 -81 -36 -9 -63
-9 -111 0 -132 24 -224 94 -270 206 -17 41 -27 53 -38 49 -67 -26 -159 -24
-233 4 -35 13 -191 114 -247 159 -50 41 -91 119 -91 174 0 43 -21 62 -82 72
-43 8 -108 63 -108 92 0 11 -14 53 -31 93 -18 43 -33 100 -36 135 -10 118 -81
316 -134 372 -22 24 -23 50 -3 152 7 38 -6 57 -73 103 -23 16 -45 39 -48 50
-9 27 11 66 38 73 23 6 17 19 -11 21 -65 6 -133 29 -156 52 -53 52 -47 99 19
168 25 25 43 50 40 55 -3 5 -26 2 -51 -7 -39 -13 -59 -14 -125 -5 -104 15
-181 48 -276 118 -43 32 -96 71 -118 85 -60 40 -85 71 -104 135 -16 52 -23 61
-57 77 -22 11 -48 27 -59 38 -11 10 -40 27 -65 38 -49 22 -81 52 -128 122 -47
69 -54 73 -94 49 -40 -24 -95 -26 -126 -4 -13 9 -36 43 -53 77 -34 70 -39 147
-15 231 16 57 47 179 76 302 10 45 25 97 34 117 28 68 91 105 181 106 45 1 52
4 67 32 17 29 21 30 71 28 29 -1 59 1 65 5 7 4 12 29 12 56 0 38 4 52 19 60
17 8 18 15 10 46 -22 79 22 142 115 163 52 12 56 14 56 41 0 19 10 38 26 53
14 14 22 27 17 30 -4 3 -42 2 -83 -3 -108 -12 -173 18 -186 86 -8 43 29 109
83 149 21 16 55 45 76 64 35 33 38 40 34 77 -7 64 -33 93 -85 94 -56 0 -77 12
-91 51 -9 26 -7 39 9 75 l19 44 -34 14 c-93 39 -145 126 -153 256 -4 70 -9 90
-28 113 -13 16 -24 37 -24 48 0 38 29 89 62 109 42 26 82 25 124 -1 l33 -20
31 31 c16 17 30 33 30 35 0 3 -18 21 -40 41 -51 46 -89 127 -106 227 -8 43
-17 83 -20 89 -4 5 -10 35 -15 66 -4 32 -19 90 -34 130 -14 40 -29 103 -32
140 -3 37 -10 72 -14 78 -6 7 -3 25 5 45 l14 35 -106 54 c-59 30 -147 77 -196
105 -49 27 -92 50 -95 50 -3 1 -22 11 -41 23 -19 12 -41 22 -47 22 -7 0 -13 5
-13 10 0 6 -8 13 -17 17 -10 4 -37 19 -60 35 -23 15 -46 28 -51 28 -6 0 -12 6
-15 14 -3 7 -25 23 -49 34 -24 12 -55 33 -70 47 -15 14 -30 25 -34 25 -3 0
-28 17 -55 38 -26 20 -75 57 -108 82 -33 25 -60 48 -60 53 -1 4 -7 7 -13 7 -7
1 -33 21 -58 45 -25 25 -53 45 -62 45 -10 0 -17 4 -15 10 3 13 -93 100 -110
100 -7 0 -12 3 -10 8 3 10 -179 192 -193 192 -6 0 -8 5 -5 11 4 6 -2 13 -14
16 -11 3 -19 9 -16 13 6 9 -25 48 -97 125 -26 27 -48 53 -48 58 0 4 -7 7 -17
7 -9 0 -14 3 -10 6 8 8 -20 64 -32 64 -5 0 -23 21 -40 48 -17 26 -44 61 -59
78 -16 16 -32 39 -36 50 -3 10 -17 31 -31 46 -14 15 -25 30 -25 34 0 3 -10 19
-21 36 -12 16 -31 48 -44 71 -12 23 -32 47 -44 53 -13 7 -18 13 -11 16 10 3 9
8 -2 19 -8 8 -18 27 -22 42 -4 16 -19 47 -34 70 -14 23 -35 60 -45 81 -10 22
-23 46 -29 54 -7 8 -13 21 -14 31 -2 9 -15 42 -30 74 -20 41 -33 57 -48 58
-21 0 -21 1 -1 9 l20 9 -20 1 c-19 1 -19 2 -1 9 13 5 16 10 8 15 -6 4 -16 25
-22 48 -8 26 -18 42 -32 46 -12 3 -15 7 -9 11 11 7 -7 80 -28 121 -4 8 -14 39
-22 69 -10 38 -19 56 -33 59 -20 5 -20 5 0 13 14 6 15 8 3 8 -11 1 -15 8 -12
24 2 12 -6 58 -18 102 -12 44 -25 105 -30 135 -4 30 -12 69 -17 85 -18 53 -62
513 -62 653 l0 22 -2360 0 -2360 0 0 -5400z m13195 2509 c0 -17 -6 -25 -23
-27 -30 -5 -42 26 -17 45 26 18 40 12 40 -18z m503 -151 c16 -16 -3 -48 -29
-48 -22 0 -34 22 -25 45 6 18 37 20 54 3z m42 -69 c0 -5 -7 -9 -15 -9 -15 0
-20 12 -9 23 8 8 24 -1 24 -14z m-232 -42 c4 -20 -25 -34 -40 -19 -15 15 -1
44 19 40 10 -2 19 -11 21 -21z m-108 -73 c0 -14 -21 -19 -33 -7 -9 9 13 34 24
27 5 -3 9 -12 9 -20z m423 19 c3 -5 -1 -14 -9 -20 -14 -14 -30 0 -19 17 7 12
22 13 28 3z m-653 -28 c0 -8 -7 -15 -15 -15 -8 0 -15 7 -15 15 0 8 7 15 15 15
8 0 15 -7 15 -15z m220 -25 c0 -5 -4 -10 -10 -10 -5 0 -10 5 -10 10 0 6 5 10
10 10 6 0 10 -4 10 -10z m464 -15 c-4 -8 -10 -15 -15 -15 -5 0 -9 7 -9 15 0 8
7 15 15 15 9 0 12 -6 9 -15z m-514 -31 c0 -8 -9 -14 -20 -14 -22 0 -28 26 -7
33 16 6 27 -1 27 -19z m-425 3 c26 -20 13 -65 -22 -73 -50 -13 -80 30 -47 67
20 22 43 24 69 6z m419 -93 c19 -7 21 -45 4 -62 -24 -24 -78 -8 -78 24 0 17
28 44 45 44 7 0 20 -3 29 -6z m402 -5 c3 -6 0 -17 -7 -25 -18 -17 -44 -2 -36
20 7 18 33 21 43 5z m51 -64 c0 -8 -6 -15 -14 -15 -14 0 -17 12 -6 23 11 11
20 8 20 -8z m-708 -54 c8 -14 6 -22 -9 -36 -23 -20 -54 -16 -58 8 -8 41 48 64
67 28z m101 9 c0 -5 -7 -10 -15 -10 -8 0 -15 5 -15 10 0 6 7 10 15 10 8 0 15
-4 15 -10z m0 -80 c0 -5 -4 -10 -10 -10 -5 0 -10 5 -10 10 0 6 5 10 10 10 6 0
10 -4 10 -10z m-1165 -106 c0 -10 -8 -20 -18 -22 -22 -4 -35 27 -16 39 20 12
34 5 34 -17z m115 -49 c0 -8 -7 -15 -15 -15 -8 0 -15 7 -15 15 0 8 7 15 15 15
8 0 15 -7 15 -15z m-582 -136 c-2 -6 -8 -10 -13 -10 -5 0 -11 4 -13 10 -2 6 4
11 13 11 9 0 15 -5 13 -11z m100 -1 c-3 -7 -11 -13 -18 -13 -7 0 -15 6 -17 13
-3 7 4 12 17 12 13 0 20 -5 18 -12z m1142 -14 c0 -14 -21 -19 -33 -7 -9 9 13
34 24 27 5 -3 9 -12 9 -20z m-1306 -30 c7 -19 -1 -34 -19 -34 -18 0 -28 17
-21 35 7 20 32 19 40 -1z m1531 -14 c0 -20 -5 -25 -25 -25 -28 0 -41 32 -18
46 23 15 43 5 43 -21z m-1382 -6 c12 -12 -6 -34 -29 -34 -23 0 -32 18 -17 33
8 9 38 9 46 1z m950 -35 c-17 -17 -37 -1 -22 17 8 10 15 12 23 4 7 -7 7 -13
-1 -21z m-927 -70 c8 -14 -18 -31 -30 -19 -9 9 0 30 14 30 5 0 12 -5 16 -11z
m1651 -75 c7 -18 -7 -46 -26 -52 -8 -3 -10 4 -5 22 7 28 -4 34 -24 14 -9 -9
-12 -9 -12 3 0 22 9 29 37 29 13 0 26 -7 30 -16z m-819 -29 c3 -25 -32 -48
-59 -40 -22 7 -27 50 -6 59 27 11 62 1 65 -19z m-788 -30 c0 -30 -36 -43 -58
-21 -14 14 -14 17 2 35 23 25 56 17 56 -14z m-190 -7 c0 -5 -7 -8 -15 -8 -15
0 -20 21 -8 33 7 7 23 -11 23 -25z m530 12 c12 -7 12 -12 2 -22 -9 -9 -12 -9
-12 1 0 7 -4 9 -10 6 -5 -3 -10 1 -10 9 0 18 8 20 30 6z m-100 -34 c0 -17 -27
-29 -35 -16 -4 6 -3 15 0 20 9 15 35 12 35 -4z m-435 -36 c3 -5 1 -10 -4 -10
-6 0 -11 5 -11 10 0 6 2 10 4 10 3 0 8 -4 11 -10z m265 -30 c0 -5 -7 -10 -15
-10 -8 0 -15 5 -15 10 0 6 7 10 15 10 8 0 15 -4 15 -10z m228 -17 c5 -17 -26
-29 -40 -15 -6 6 -7 15 -3 22 9 14 37 9 43 -7z m-428 -12 c0 -5 -6 -12 -12
-14 -8 -3 -5 -6 5 -6 10 -1 15 -5 12 -11 -13 -22 -48 -1 -39 23 6 18 34 24 34
8z m1658 -3 c17 -17 15 -54 -4 -72 -8 -9 -30 -16 -47 -16 l-32 0 25 13 c33 16
39 53 10 62 -12 4 -27 1 -35 -5 -20 -17 -19 -5 1 14 18 19 65 21 82 4z m-1565
-40 c22 -35 -29 -61 -73 -38 -19 10 -19 11 2 36 25 27 55 28 71 2z m-4318 2
c3 -5 -1 -10 -10 -10 -9 0 -13 5 -10 10 3 6 8 10 10 10 2 0 7 -4 10 -10z
m4903 -8 c2 -8 -2 -10 -14 -5 -13 5 -16 3 -11 -10 4 -11 1 -17 -8 -17 -21 0
-28 19 -14 36 14 17 40 15 47 -4z m1117 0 c-3 -3 -11 0 -18 7 -9 10 -8 11 6 5
10 -3 15 -9 12 -12z m-1537 -43 c4 -23 -26 -51 -52 -47 -25 4 -33 33 -15 54
16 19 63 14 67 -7z m-267 -22 c-1 -12 -15 -9 -19 4 -3 6 1 10 8 8 6 -3 11 -8
11 -12z m372 -24 c-5 -12 -7 -12 -15 -1 -7 10 -11 10 -15 1 -7 -18 -23 -16
-23 2 0 20 32 36 47 24 6 -6 9 -17 6 -26z m767 6 c0 -6 -4 -8 -9 -4 -5 3 -12
1 -16 -5 -4 -6 -11 -7 -17 -4 -7 5 -5 12 7 20 19 14 35 10 35 -7z m-5602 -10
c-10 -5 -18 -18 -18 -27 0 -15 2 -15 10 -2 6 9 10 10 10 3 0 -19 -20 -26 -26
-9 -9 23 3 46 23 46 17 -1 17 -1 1 -11z m6107 -29 c3 -5 0 -10 -9 -10 -8 0
-16 -6 -19 -12 -2 -7 -8 -10 -12 -6 -8 8 12 38 26 38 4 0 11 -4 14 -10z m-935
-10 c0 -5 -6 -10 -12 -10 -8 -1 -6 -6 5 -14 20 -16 6 -32 -18 -22 -18 7 -20
42 -2 49 20 9 27 8 27 -3z m825 0 c3 -5 -3 -10 -14 -10 -12 0 -21 -7 -21 -15
0 -8 6 -15 13 -15 8 0 8 -3 -2 -9 -32 -20 -56 20 -29 47 15 15 45 16 53 2z
m-1227 -79 c-15 -5 -21 7 -13 26 7 17 8 17 15 -2 4 -11 3 -22 -2 -24z m943 30
c-8 -5 -11 -16 -8 -25 7 -18 -1 -20 -22 -7 -20 13 -6 41 21 41 17 0 20 -3 9
-9z m-558 -31 c27 0 37 -4 37 -16 0 -8 -4 -12 -10 -9 -5 3 -10 1 -10 -6 0 -18
-31 -49 -49 -49 -8 0 -27 12 -43 26 -22 22 -25 30 -17 46 8 14 17 18 32 14 12
-3 39 -6 60 -6z m-223 -30 c0 -5 -5 -10 -11 -10 -5 0 -7 5 -4 10 3 6 8 10 11
10 2 0 4 -4 4 -10z m1097 -35 c0 -8 -4 -15 -9 -15 -4 0 -8 7 -8 15 0 8 4 15 8
15 5 0 9 -7 9 -15z m-1590 -20 c-5 -14 -29 -13 -34 2 -3 7 4 11 16 10 12 -1
20 -6 18 -12z m-77 -9 c0 -3 -4 -8 -10 -11 -5 -3 -10 -1 -10 4 0 6 5 11 10 11
6 0 10 -2 10 -4z m1080 -10 c0 -3 -4 -8 -10 -11 -5 -3 -10 -1 -10 4 0 6 5 11
10 11 6 0 10 -2 10 -4z m-5381 -53 c0 -11 -3 -13 -6 -5 -2 6 -9 10 -14 6 -5
-3 -9 0 -9 5 0 6 7 11 15 11 8 0 15 -8 14 -17z m6091 7 c0 -5 -9 -10 -20 -10
-11 0 -20 -7 -20 -15 0 -8 8 -15 17 -15 9 0 14 -3 10 -6 -9 -9 -47 6 -47 20 0
6 5 17 12 24 15 15 48 16 48 2z m-675 -30 c3 -5 -1 -10 -10 -10 -9 0 -13 5
-10 10 3 6 8 10 10 10 2 0 7 -4 10 -10z m-805 -4 c0 -3 -4 -8 -10 -11 -5 -3
-10 -1 -10 4 0 6 5 11 10 11 6 0 10 -2 10 -4z m1124 -11 c-4 -8 -10 -12 -15
-9 -11 6 -2 24 11 24 5 0 7 -7 4 -15z m-374 -25 c0 -5 -5 -10 -11 -10 -5 0 -7
5 -4 10 3 6 8 10 11 10 2 0 4 -4 4 -10z m104 -32 c-4 -6 1 -17 10 -24 15 -10
10 -12 -31 -12 -44 1 -62 10 -63 31 0 4 7 7 16 7 8 0 13 -4 9 -9 -12 -20 17
-22 31 -2 15 22 41 30 28 9z m-834 -13 c0 -9 -9 -15 -22 -14 -18 1 -19 2 -5 6
9 2 15 9 12 14 -4 5 -1 9 4 9 6 0 11 -7 11 -15z m250 -35 c-8 -5 -17 -7 -19
-4 -3 3 1 9 9 14 8 5 17 7 19 4 3 -3 -1 -9 -9 -14z m-660 0 c12 -7 12 -12 2
-22 -9 -9 -12 -9 -12 1 0 8 -6 11 -15 7 -15 -5 -20 5 -8 17 8 9 15 9 33 -3z
m415 0 c3 -5 1 -10 -4 -10 -6 0 -11 5 -11 10 0 6 2 10 4 10 3 0 8 -4 11 -10z
m825 -10 c0 -5 -5 -10 -11 -10 -5 0 -7 5 -4 10 3 6 8 10 11 10 2 0 4 -4 4 -10z
m-70 -40 c0 -5 -2 -10 -4 -10 -3 0 -8 5 -11 10 -3 6 -1 10 4 10 6 0 11 -4 11
-10z m-500 -25 c9 5 11 4 6 -3 -11 -18 -36 -14 -36 6 0 13 2 14 9 3 5 -8 14
-10 21 -6z m-255 -45 c3 -5 -1 -10 -9 -10 -9 0 -16 5 -16 10 0 6 4 10 9 10 6
0 13 -4 16 -10z m199 -16 c9 -8 16 -20 16 -25 0 -12 -38 -49 -51 -49 -18 0
-49 20 -49 32 0 7 5 7 14 -1 11 -9 20 -10 35 -1 26 13 27 36 4 49 -16 9 -16
10 -1 11 9 0 24 -7 32 -16z m929 -11 c-7 -2 -13 -11 -13 -19 0 -8 -4 -14 -10
-14 -11 0 -14 23 -3 33 3 4 13 7 22 6 10 0 12 -2 4 -6z m-6082 -73 c21 -12 26
-50 6 -50 -7 0 -23 7 -36 17 -23 16 -25 15 -43 -7 -20 -25 -12 -45 27 -60 19
-8 18 -9 -4 -9 -14 -1 -33 6 -43 16 -54 49 25 129 93 93z m6909 -105 c-7 -8
-22 -15 -34 -14 -18 0 -17 2 7 11 15 5 27 15 27 21 0 5 3 7 6 4 4 -4 1 -13 -6
-22z m-867 -210 c-3 -9 -8 -14 -10 -11 -3 3 -2 9 2 15 9 16 15 13 8 -4z
m-1373 -215 c0 -5 -9 -10 -20 -10 -11 0 -20 5 -20 10 0 6 9 10 20 10 11 0 20
-4 20 -10z m-20 -40 c0 -5 -6 -10 -14 -10 -8 0 -18 5 -21 10 -3 6 3 10 14 10
12 0 21 -4 21 -10z m240 -229 c0 -10 -24 -21 -43 -21 -7 0 -3 7 7 15 22 17 36
19 36 6z m5 -51 c4 -6 -5 -10 -20 -10 -15 0 -24 4 -20 10 3 6 12 10 20 10 8 0
17 -4 20 -10z m-5919 -365 c-7 -26 -8 -26 -25 -10 -13 11 -21 13 -26 6 -13
-22 -25 -10 -25 25 0 28 3 35 15 30 10 -3 15 1 15 12 0 13 5 11 26 -10 21 -21
25 -32 20 -53z m6297 16 c-9 -12 -25 20 -18 36 7 16 9 15 15 -7 4 -14 5 -27 3
-29z m-69 23 c3 -8 2 -12 -4 -9 -6 3 -10 10 -10 16 0 14 7 11 14 -7z m-6289
-84 c-17 -27 111 -34 158 -8 37 19 28 -1 -11 -27 -23 -15 -45 -40 -51 -55 -10
-31 -45 -70 -61 -70 -20 0 -10 39 15 58 25 20 25 21 5 27 -11 3 -20 10 -20 15
0 4 -11 15 -25 24 -24 16 -26 15 -56 -14 -18 -16 -40 -30 -50 -30 -28 0 -9 40
31 68 33 22 76 31 65 12z m8122 -16 c-3 -3 -12 -4 -19 -1 -8 3 -5 6 6 6 11 1
17 -2 13 -5z m-1448 -17 c-2 -1 -14 -11 -26 -21 -13 -11 -23 -16 -23 -13 0 10
31 37 42 37 6 0 9 -1 7 -3z m-462 -284 c-3 -10 -5 -4 -5 12 0 17 2 24 5 18 2
-7 2 -21 0 -30z m357 -2 c4 -5 -3 -7 -14 -4 -23 6 -26 13 -6 13 8 0 17 -4 20
-9z m-5854 -306 c0 -8 -2 -15 -4 -15 -2 0 -6 7 -10 15 -3 8 -1 15 4 15 6 0 10
-7 10 -15z m-63 -27 c-3 -7 -5 -2 -5 12 0 14 2 19 5 13 2 -7 2 -19 0 -25z
m6400 -124 c-3 -3 -12 -4 -19 -1 -8 3 -5 6 6 6 11 1 17 -2 13 -5z m-1557
-1522 c0 -13 -12 -22 -22 -16 -10 6 -1 24 13 24 5 0 9 -4 9 -8z m-2424 -879
c-10 -10 -19 5 -10 18 6 11 8 11 12 0 2 -7 1 -15 -2 -18z"/>
<path d="M13300 7380 c0 -5 5 -10 10 -10 6 0 10 5 10 10 0 6 -4 10 -10 10 -5
0 -10 -4 -10 -10z"/>
<path d="M12970 6850 c0 -5 4 -10 9 -10 6 0 13 5 16 10 3 6 -1 10 -9 10 -9 0
-16 -4 -16 -10z"/>
<path d="M12445 6629 c-10 -15 3 -25 16 -12 7 7 7 13 1 17 -6 3 -14 1 -17 -5z"/>
<path d="M11620 6440 c0 -5 5 -10 10 -10 6 0 10 5 10 10 0 6 -4 10 -10 10 -5
0 -10 -4 -10 -10z"/>
<path d="M11790 6380 c0 -5 5 -10 10 -10 6 0 10 5 10 10 0 6 -4 10 -10 10 -5
0 -10 -4 -10 -10z"/>
<path d="M12217 6206 c-4 -10 -5 -21 -2 -24 9 -9 17 6 13 25 -3 17 -4 17 -11
-1z"/>
<path d="M9697 10794 c-4 -4 -7 -13 -7 -21 0 -18 35 -17 50 2 8 9 8 15 2 15
-6 0 -17 2 -24 5 -8 3 -17 2 -21 -1z"/>
<path d="M10158 10793 c7 -3 16 -2 19 1 4 3 -2 6 -13 5 -11 0 -14 -3 -6 -6z"/>
<path d="M10156 10758 c-12 -16 -18 -19 -22 -10 -6 13 -84 17 -84 4 0 -4 -17
-6 -39 -4 -34 3 -39 1 -43 -22 -3 -14 -1 -29 4 -34 10 -10 -14 -73 -37 -96 -9
-9 -32 -16 -51 -16 -24 0 -34 -5 -34 -15 0 -8 -6 -15 -12 -15 -9 0 -10 -3 -2
-8 18 -12 35 -51 28 -63 -3 -6 -25 -19 -47 -29 -33 -15 -43 -26 -53 -59 -14
-49 -4 -68 42 -77 27 -5 33 -3 39 17 l8 24 9 -25 c6 -16 5 -26 -1 -28 -14 -5
-14 -39 -1 -47 6 -3 10 -15 10 -26 0 -11 5 -17 10 -14 15 9 12 -23 -6 -60 -11
-24 -20 -32 -31 -28 -14 6 -15 -1 -10 -47 4 -34 2 -59 -5 -67 -6 -7 -8 -17 -4
-20 9 -9 25 15 32 49 4 17 11 25 20 21 8 -3 11 -10 7 -17 -3 -6 -1 -6 8 2 7 6
21 12 30 12 23 0 28 17 33 134 6 114 16 131 79 141 69 11 94 25 89 51 -2 12 1
25 7 28 6 4 11 16 11 27 0 12 7 19 19 19 23 0 44 51 35 86 -4 15 -2 24 5 24 6
0 11 -9 11 -21 0 -11 13 -33 29 -49 16 -16 27 -31 25 -32 -1 -2 12 -8 29 -13
31 -10 32 -10 35 24 1 19 9 42 17 51 17 19 21 125 5 135 -5 3 -10 17 -10 30 0
18 -4 23 -15 19 -9 -4 -15 0 -15 9 0 13 -14 17 -62 19 -54 3 -63 6 -60 21 4
24 -12 21 -32 -5z m-232 -572 c-3 -15 -13 -26 -23 -26 -10 0 -12 3 -5 8 6 4
15 17 19 30 9 32 18 21 9 -12z"/>
<path d="M9786 10761 c-4 -5 -2 -19 2 -31 l8 -21 19 21 c16 18 17 23 5 30 -19
12 -27 12 -34 1z"/>
<path d="M9696 10464 c-18 -18 -20 -30 -7 -39 5 -3 16 8 24 25 17 32 8 40 -17
14z"/>
<path d="M10112 10018 c5 -15 28 -18 29 -3 0 6 -7 12 -17 13 -10 3 -15 -1 -12
-10z"/>
<path d="M9919 9964 c-6 -8 -18 -14 -26 -14 -8 0 -12 -4 -8 -9 3 -6 -3 -14
-12 -20 -17 -9 -17 -11 5 -33 19 -19 22 -20 22 -5 0 18 25 23 35 7 3 -5 15
-10 25 -10 22 0 43 57 28 76 -14 18 -57 23 -69 8z"/>
<path d="M9917 9743 c-9 -8 -9 -43 -1 -43 8 0 33 32 34 43 0 9 -24 9 -33 0z"/>
<path d="M9396 9065 c-9 -24 5 -41 16 -20 7 11 7 20 0 27 -6 6 -12 3 -16 -7z"/>
<path d="M9529 8875 c-8 -8 1 -54 12 -61 5 -3 9 3 8 13 -1 25 -13 55 -20 48z"/>
<path d="M5350 8790 c0 -5 5 -10 10 -10 6 0 10 5 10 10 0 6 -4 10 -10 10 -5 0
-10 -4 -10 -10z"/>
<path d="M9542 8780 c0 -14 2 -19 5 -12 2 6 2 18 0 25 -3 6 -5 1 -5 -13z"/>
<path d="M13785 8720 c-3 -5 -1 -10 4 -10 6 0 11 5 11 10 0 6 -2 10 -4 10 -3
0 -8 -4 -11 -10z"/>
<path d="M8502 8414 c-23 -16 -28 -39 -13 -63 8 -12 13 -11 30 10 36 43 23 81
-17 53z"/>
<path d="M8940 7950 c0 -5 5 -10 11 -10 5 0 7 5 4 10 -3 6 -8 10 -11 10 -2 0
-4 -4 -4 -10z"/>
<path d="M8972 7935 c-11 -13 -22 -22 -25 -19 -3 3 -4 -2 -2 -13 2 -10 6 -41
9 -70 7 -82 16 -92 84 -90 l57 1 49 65 49 64 -18 34 c-18 32 -35 44 -35 22 0
-5 -4 -8 -8 -5 -19 12 -55 -43 -58 -89 -4 -77 -22 -87 -52 -27 -18 38 -22 57
-17 100 7 58 -3 66 -33 27z"/>
<path d="M9655 7780 c-12 -4 -27 -16 -35 -25 -8 -10 -34 -26 -57 -36 -24 -10
-43 -22 -43 -27 0 -5 -17 -25 -37 -46 -42 -42 -51 -72 -24 -81 57 -18 79 -90
47 -153 -13 -25 -12 -33 10 -85 61 -150 60 -244 -2 -308 -31 -33 -44 -39 -64
-34 -14 3 -33 6 -43 6 -13 0 -16 4 -9 12 12 14 -8 47 -27 47 -16 0 -14 50 4
56 11 5 12 9 2 19 -7 7 -16 11 -20 8 -5 -3 -11 5 -14 16 -4 16 -11 20 -24 16
-14 -5 -22 1 -30 19 -13 28 -6 54 16 61 51 16 49 13 31 40 -9 13 -16 31 -16
40 0 12 -4 14 -19 5 -28 -14 -33 -13 -29 10 2 10 -3 28 -11 39 -14 19 -14 19
-33 -2 -16 -20 -19 -20 -30 -6 -7 9 -20 14 -28 11 -21 -7 -40 -28 -33 -36 4
-3 -7 -6 -24 -6 -23 0 -32 5 -36 21 -6 22 -34 21 -29 -1 1 -6 -7 -26 -18 -45
-11 -18 -20 -43 -21 -56 0 -22 -1 -23 -9 -4 -7 18 -8 19 -15 3 -4 -10 -13 -18
-20 -18 -7 0 -16 -6 -18 -12 -4 -10 -6 -9 -6 1 -1 9 -8 6 -21 -9 -26 -30 -34
-21 -25 29 5 31 14 45 36 58 16 10 29 26 29 38 1 34 26 116 33 109 4 -4 10 7
13 25 4 17 11 34 15 37 5 3 9 16 9 29 0 27 -33 42 -67 31 -13 -4 -23 3 -36 25
-9 17 -14 35 -11 40 8 13 -15 39 -33 39 -11 0 -13 -7 -9 -25 7 -29 -17 -36
-32 -9 -5 8 -16 16 -25 18 -8 1 -25 13 -36 26 l-20 25 -1 -24 c0 -24 -7 -25
-54 -6 -16 7 -17 4 -12 -22 9 -42 -14 -61 -52 -44 -15 7 -27 12 -27 10 0 -1
-10 3 -22 10 -19 10 -22 9 -16 -5 7 -19 -36 -63 -55 -56 -20 6 -52 -28 -52
-55 0 -12 -4 -23 -8 -23 -4 0 -16 -13 -25 -30 -10 -16 -25 -30 -33 -30 -8 0
-14 -4 -14 -9 0 -5 -12 -12 -26 -15 -18 -5 -24 -12 -20 -22 14 -37 -46 -93
-116 -110 -15 -3 -43 -24 -63 -45 -19 -22 -35 -34 -35 -27 0 6 -3 9 -6 5 -4
-3 -13 0 -21 8 -8 8 -24 15 -36 15 -31 0 -70 -29 -63 -46 3 -9 -3 -18 -17 -23
-32 -13 -62 -44 -77 -80 -16 -39 -8 -49 22 -27 52 38 92 60 114 62 27 3 32
-11 8 -20 -13 -5 -15 -16 -10 -56 l6 -50 -27 11 c-54 20 -85 19 -104 -4 -10
-12 -18 -28 -19 -35 0 -7 -4 -10 -10 -7 -5 3 -10 -3 -10 -14 0 -26 15 -34 40
-21 17 9 26 7 50 -12 16 -13 29 -30 29 -38 1 -9 10 -22 21 -30 11 -8 20 -20
20 -28 0 -7 8 -15 18 -18 15 -5 64 -26 102 -44 8 -4 16 -20 18 -36 2 -16 17
-42 33 -58 23 -22 27 -34 22 -55 -3 -14 -10 -27 -15 -29 -4 -2 -8 -8 -8 -13 0
-6 4 -8 9 -4 14 8 34 -33 28 -61 -2 -14 2 -29 10 -36 8 -6 21 -24 29 -40 19
-36 40 -44 138 -52 l79 -7 -6 30 c-7 34 -1 40 49 51 56 13 124 -47 124 -110 0
-11 5 -20 10 -20 6 0 10 -7 10 -16 0 -9 5 -12 13 -8 7 5 7 1 -2 -10 -13 -15
-13 -19 0 -27 8 -5 11 -9 7 -9 -4 0 -2 -15 4 -32 16 -53 37 -151 38 -177 0
-18 -4 -22 -17 -16 -42 17 -53 17 -53 1 0 -10 5 -14 10 -11 6 4 10 -8 10 -27
0 -27 -4 -34 -20 -34 -11 0 -20 5 -20 11 0 5 -12 16 -27 22 -21 10 -28 10 -35
0 -6 -9 -8 -8 -8 3 0 23 -49 24 -57 2 -11 -27 -26 -39 -61 -47 -18 -3 -30 -10
-27 -15 3 -5 1 -11 -5 -15 -6 -4 -8 -11 -4 -16 3 -5 2 -9 -3 -8 -4 1 -21 1
-38 0 -23 -1 -27 -3 -15 -11 8 -5 24 -7 35 -4 14 4 16 3 7 -4 -8 -5 -13 -12
-13 -16 3 -24 -1 -36 -13 -36 -8 0 -17 -9 -21 -20 -5 -15 -12 -18 -36 -13 -16
3 -35 1 -42 -6 -15 -12 -44 -5 -120 28 -27 12 -50 21 -51 21 -1 0 0 -19 3 -42
5 -35 10 -43 35 -49 37 -10 66 -37 59 -55 -3 -8 -9 -11 -14 -8 -5 3 -9 0 -9
-6 0 -6 -12 -15 -26 -20 -14 -6 -23 -14 -20 -19 3 -4 -4 -25 -14 -47 -11 -21
-20 -49 -20 -62 0 -18 -5 -23 -22 -20 -20 3 -23 -1 -20 -27 2 -16 10 -34 18
-38 8 -4 14 -17 14 -28 0 -12 10 -29 23 -40 20 -17 20 -18 2 -12 -17 6 -18 4
-8 -8 8 -10 9 -19 3 -25 -5 -5 -10 -29 -12 -53 -3 -41 -1 -45 27 -55 59 -22
75 -38 75 -77 0 -37 39 -87 58 -75 11 7 22 -26 22 -70 0 -22 -7 -34 -22 -43
-25 -13 -51 -58 -42 -72 3 -5 -1 -9 -9 -9 -16 0 -67 -62 -67 -82 0 -7 -15 -20
-33 -28 -19 -9 -41 -32 -55 -57 -54 -99 -71 -19 -22 104 35 88 39 129 11 138
-21 6 -57 72 -67 122 -10 49 12 99 54 124 20 13 39 24 40 25 2 1 -1 35 -7 76
-12 78 -27 98 -71 98 -14 0 -31 5 -36 10 -14 14 -134 -45 -134 -65 0 -9 -6
-12 -15 -9 -8 4 -22 4 -30 0 -22 -8 1 -53 34 -64 32 -12 71 -48 71 -66 0 -25
-41 -66 -66 -66 -14 0 -23 -4 -20 -9 10 -15 -27 -102 -41 -97 -16 6 -16 1 -2
-25 5 -11 14 -17 18 -15 4 3 13 -6 19 -19 7 -15 21 -26 34 -26 13 -1 32 -3 43
-4 11 -1 32 -2 48 -3 15 -1 27 -7 27 -13 0 -25 -54 -119 -69 -119 -18 0 -41
-61 -41 -107 l-1 -28 -30 34 c-32 34 -32 40 -11 108 18 57 -17 47 -50 -14 -23
-40 -23 -49 3 -56 19 -5 21 -11 16 -40 -3 -20 -1 -39 6 -46 11 -11 2 -24 -26
-34 -15 -5 4 -36 26 -43 12 -4 32 -14 45 -22 21 -14 22 -15 5 -27 -28 -20
-126 -29 -152 -15 -16 8 -26 8 -35 1 -7 -6 -16 -8 -19 -4 -4 3 -7 0 -7 -8 0
-8 -13 -23 -30 -32 -16 -10 -30 -22 -30 -26 0 -4 -11 -20 -25 -35 -21 -23 -28
-25 -46 -16 -19 11 -20 17 -14 71 l7 60 -28 -7 c-16 -4 -36 -13 -45 -21 -9 -8
-33 -17 -53 -20 -20 -3 -39 -10 -42 -14 -3 -5 -14 -9 -24 -9 -11 0 -22 -10
-26 -22 -4 -13 -15 -34 -26 -48 -12 -16 -17 -32 -13 -48 3 -14 2 -21 -4 -18
-13 8 -107 -83 -103 -100 2 -8 -2 -14 -8 -14 -5 0 -10 -11 -10 -24 0 -14 -4
-28 -10 -31 -16 -10 -12 -25 5 -19 11 5 13 2 9 -10 -3 -9 -16 -19 -29 -22 -25
-6 -51 -46 -41 -62 3 -6 1 -23 -5 -39 -6 -15 -15 -52 -20 -82 -5 -30 -14 -58
-21 -62 -17 -11 -4 -22 29 -25 14 -2 29 -8 34 -15 10 -17 69 -20 69 -4 0 18
20 24 47 14 27 -10 40 6 17 19 -11 6 -13 11 -5 16 14 9 140 -49 162 -75 9 -10
21 -19 28 -19 6 0 11 -8 11 -19 0 -10 7 -24 15 -31 8 -7 25 -30 37 -51 12 -22
25 -39 28 -39 4 0 6 -10 6 -22 -2 -46 30 -31 64 29 35 63 58 93 72 93 11 0 10
-47 -1 -68 -5 -9 -11 -33 -14 -52 -3 -19 -8 -50 -12 -67 -5 -21 -2 -45 6 -65
8 -18 12 -41 11 -50 -3 -19 45 -78 64 -78 6 0 19 -11 27 -24 26 -40 47 -55 64
-49 10 4 14 2 9 -5 -3 -6 3 -13 14 -17 11 -3 20 -11 20 -16 0 -5 6 -9 13 -8
20 4 61 -18 77 -40 8 -12 20 -21 26 -21 7 0 14 -5 16 -11 2 -7 19 -13 38 -14
19 -2 42 -5 50 -8 29 -10 99 -17 115 -11 9 4 13 13 10 24 -4 12 1 19 15 23 11
3 20 1 20 -4 0 -5 6 -9 13 -9 35 0 93 -25 125 -54 20 -18 57 -45 82 -59 25
-15 40 -27 33 -27 -6 0 -14 -9 -18 -19 -4 -12 -12 -18 -21 -14 -18 7 -18 3 2
-36 13 -25 14 -38 6 -56 -6 -13 -8 -32 -5 -44 6 -22 37 -29 48 -10 4 6 26 9
48 7 32 -2 43 1 45 14 2 9 -2 19 -7 23 -6 3 -11 11 -11 16 0 6 12 1 26 -10 35
-28 58 -26 72 3 14 32 104 75 171 83 28 3 48 9 46 13 -3 4 -46 29 -97 54 -159
80 -216 131 -204 180 9 37 93 61 173 49 24 -4 30 -9 26 -21 -4 -10 1 -8 15 6
18 18 26 20 42 12 24 -13 25 -23 5 -40 -8 -7 -12 -16 -9 -21 3 -5 -6 -9 -20
-9 -47 0 -56 -63 -10 -74 13 -4 24 -13 24 -21 0 -8 4 -15 10 -15 5 0 9 5 7 11
-5 24 23 19 39 -8 25 -39 71 -82 81 -74 4 3 1 -3 -8 -14 -9 -11 -21 -34 -28
-52 -7 -17 -19 -34 -28 -37 -8 -3 -11 -10 -8 -16 3 -5 0 -10 -8 -10 -8 0 -17
-7 -21 -15 -3 -8 -7 -18 -8 -22 -2 -4 -21 -23 -43 -43 -22 -19 -42 -39 -44
-44 -2 -4 -17 -22 -35 -38 -17 -17 -30 -34 -29 -39 2 -5 -2 -8 -9 -6 -15 3
-37 -41 -40 -80 -1 -21 -6 -29 -15 -26 -7 3 -13 0 -13 -6 0 -7 7 -14 15 -17
22 -9 18 -26 -4 -19 -13 4 -20 0 -24 -17 -7 -25 7 -38 39 -38 18 0 22 -8 28
-50 4 -28 4 -66 0 -85 -3 -20 -2 -41 3 -48 20 -25 20 -59 1 -114 -16 -43 -19
-63 -11 -83 5 -14 7 -34 3 -45 -8 -23 15 -91 29 -88 6 2 11 -2 11 -8 0 -8 5
-7 15 1 13 11 14 10 9 -4 -4 -11 -1 -16 10 -16 21 0 21 -16 0 -24 -12 -5 -14
-10 -5 -20 6 -7 8 -15 5 -19 -11 -11 17 -49 32 -43 8 3 13 2 10 -3 -3 -4 3
-16 14 -26 18 -16 23 -17 46 -4 24 12 27 11 44 -11 17 -22 17 -28 4 -58 -17
-42 -17 -45 -3 -36 9 5 10 -1 5 -20 -5 -21 -3 -26 13 -26 11 0 27 -3 35 -6 12
-5 15 -2 10 10 -9 24 9 19 25 -6 12 -19 11 -24 -9 -40 -16 -13 -26 -16 -34 -8
-15 15 -26 12 -26 -6 0 -8 4 -13 9 -9 5 3 13 0 17 -6 3 -6 0 -15 -7 -20 -9 -5
-10 -9 -2 -9 6 0 9 -8 6 -19 -4 -15 2 -20 25 -26 16 -3 38 -14 49 -23 10 -9
26 -21 35 -27 8 -5 27 -18 42 -29 39 -27 45 -11 9 27 -43 45 -53 69 -53 121 0
37 3 46 18 46 14 0 14 -2 3 -9 -12 -8 -10 -17 13 -51 17 -27 33 -40 42 -36 9
3 14 -1 14 -13 0 -12 14 -22 48 -32 35 -11 47 -20 47 -34 0 -14 -8 -21 -27
-23 -30 -4 -38 -26 -13 -36 8 -3 15 -1 15 5 0 6 5 7 11 3 6 -3 9 -15 6 -25 -3
-11 -1 -19 4 -19 5 0 9 5 9 11 0 7 10 9 25 7 14 -3 28 -1 31 3 3 5 24 8 47 8
58 -3 79 11 177 111 70 72 89 87 109 84 35 -6 35 -8 6 -42 -14 -16 -25 -34
-25 -39 0 -5 27 -19 60 -31 56 -20 63 -20 102 -6 24 8 54 12 67 9 13 -3 27 -2
30 3 7 11 153 43 160 36 20 -19 -124 -74 -194 -74 -17 0 -35 -4 -41 -10 -5 -5
-38 -13 -71 -16 -55 -6 -68 -4 -114 21 l-52 27 -18 -24 c-30 -37 -24 -48 25
-48 59 0 65 -14 15 -34 -28 -11 -39 -21 -35 -31 3 -8 1 -17 -5 -20 -5 -4 -12
1 -15 9 -11 28 -34 18 -34 -13 0 -20 12 -42 36 -68 20 -21 45 -51 56 -66 12
-16 26 -26 34 -23 8 3 13 2 13 -2 -3 -19 2 -23 16 -12 12 10 26 9 71 -5 43
-14 67 -16 107 -9 51 9 51 9 55 49 4 41 30 76 61 80 35 5 61 18 61 31 0 8 9
14 21 14 25 0 54 15 92 46 32 27 49 31 41 10 -10 -26 114 -54 196 -44 30 3 76
6 101 7 42 1 48 -2 70 -34 16 -24 30 -34 42 -31 9 2 15 0 12 -5 -13 -20 109
-30 180 -15 70 15 108 34 151 75 18 16 35 27 38 24 3 -4 6 2 6 13 0 11 10 24
23 29 15 7 21 18 20 33 -2 13 3 22 11 22 7 0 16 9 19 20 3 11 12 20 21 20 19
0 20 10 3 34 -7 10 -32 20 -55 23 -35 5 -46 2 -63 -16 -11 -11 -27 -21 -37
-21 -15 0 -15 2 -2 10 10 6 11 10 3 10 -21 0 -14 31 12 56 14 13 25 31 25 40
0 21 31 94 40 94 11 0 50 37 50 46 0 5 16 18 35 28 36 20 48 44 42 83 -3 25
-25 53 -40 53 -6 0 -18 7 -28 16 -16 14 -21 14 -58 -5 -39 -21 -131 -29 -131
-13 0 5 16 16 35 25 24 11 41 31 57 64 26 57 31 139 8 153 -8 5 -11 10 -7 10
16 0 -15 41 -39 52 -14 7 -23 17 -20 25 3 8 -1 16 -9 19 -8 4 -15 12 -15 20 0
8 -5 14 -12 14 -6 0 0 13 15 28 15 15 27 36 27 45 0 14 -4 15 -27 6 -21 -8
-28 -7 -35 6 -5 8 -21 15 -35 15 -15 0 -23 3 -20 6 4 4 -2 19 -13 34 -14 20
-26 26 -43 23 -20 -4 -25 0 -29 21 -3 14 0 30 5 35 8 8 0 11 -26 11 -26 0 -39
6 -47 20 -6 11 -17 20 -25 20 -8 0 -15 6 -15 14 0 7 -7 19 -15 26 -8 7 -15 20
-15 30 0 26 -90 117 -135 136 -32 13 -45 27 -58 58 -10 23 -33 58 -52 80 -19
21 -35 42 -35 47 0 5 -7 9 -15 9 -9 0 -12 6 -8 18 3 9 3 14 -2 10 -4 -4 -14 0
-23 8 -14 14 -14 21 2 65 21 58 16 79 -19 79 -15 0 -24 -4 -20 -10 3 -5 1 -10
-4 -10 -6 0 -11 -6 -11 -14 0 -8 -13 -17 -29 -21 -44 -9 -93 -64 -120 -134
-27 -69 -92 -141 -128 -141 -31 0 -46 33 -38 81 4 25 3 39 -4 39 -6 0 -11 12
-11 26 0 37 -24 58 -50 44 -11 -6 -20 -17 -20 -25 0 -17 -16 -20 -25 -5 -3 6
-19 10 -36 10 -16 0 -29 3 -29 8 0 4 -12 7 -27 8 -16 1 -75 3 -133 6 -80 4
-107 2 -115 -8 -8 -10 -13 -11 -26 -1 -13 10 -15 27 -9 107 10 148 35 180 159
206 83 17 137 38 148 58 4 8 13 15 18 15 6 0 13 15 16 33 4 18 7 27 8 21 0 -7
9 -13 20 -13 16 0 18 7 13 68 -3 37 -5 83 -6 102 -1 38 -15 47 -73 49 -21 1
-36 8 -43 21 -15 29 -29 25 -84 -20 -55 -45 -62 -48 -71 -21 -3 11 -14 19 -25
18 -10 -1 -16 -5 -14 -9 3 -4 0 -8 -5 -8 -6 0 -11 -7 -11 -15 0 -8 -4 -15 -9
-15 -5 0 -17 -8 -27 -17 -13 -13 -19 -14 -22 -5 -2 7 -8 10 -13 6 -5 -3 -9 1
-9 10 0 8 -6 17 -12 19 -10 4 -10 6 0 6 6 1 12 7 12 14 1 21 37 57 58 57 11 0
28 7 36 16 19 18 21 54 4 54 -6 0 1 14 18 31 31 33 80 59 113 59 11 0 32 11
47 25 18 17 38 25 62 25 41 0 145 -53 173 -88 47 -60 48 -175 3 -309 -30 -90
-30 -93 0 -93 31 0 72 -43 80 -83 11 -55 21 -64 46 -42 12 11 28 34 35 52 17
41 69 73 119 73 49 0 210 -76 249 -117 20 -21 31 -49 41 -100 15 -79 23 -96
38 -87 6 4 23 8 39 10 24 3 27 0 23 -19 -2 -12 -13 -29 -25 -38 -20 -15 -20
-18 -6 -45 25 -49 49 -64 98 -63 99 4 183 -67 252 -213 41 -86 70 -181 81
-268 2 -19 3 16 0 79 -2 80 -8 121 -19 137 -8 13 -14 25 -13 25 15 7 48 4 48
-5 0 -15 20 16 20 32 0 6 -6 12 -14 12 -8 0 -19 14 -25 30 -5 17 -17 33 -26
36 -8 3 -15 10 -15 14 0 18 -69 75 -91 75 -18 0 -24 5 -22 21 3 29 -42 51 -55
28 -8 -15 -10 -14 -15 1 -4 9 -11 14 -16 11 -5 -3 -12 1 -15 10 -6 15 -8 15
-26 -1 -18 -16 -20 -16 -20 -2 0 9 5 19 11 22 6 4 8 13 5 21 -8 22 4 44 25 44
11 0 19 7 19 18 0 29 129 82 199 82 47 0 61 4 79 23 22 23 29 47 15 47 -8 0
-39 25 -111 91 -24 21 -46 39 -50 39 -22 0 -65 49 -66 75 -1 16 -7 30 -13 32
-13 5 -55 -65 -74 -122 -7 -22 -18 -44 -24 -50 -7 -5 -15 -17 -18 -25 -4 -8
-4 3 0 24 5 32 3 37 -8 30 -21 -13 -49 -15 -49 -4 0 6 5 10 12 10 6 0 4 8 -6
19 -12 13 -14 20 -5 23 8 3 10 13 6 29 -5 17 -23 31 -67 51 -33 15 -60 34 -60
41 0 8 -6 15 -12 14 -60 -2 -90 4 -85 17 3 8 -1 20 -9 26 -18 16 -46 -4 -37
-26 4 -12 0 -14 -23 -8 -16 4 -31 10 -34 14 -3 3 -13 9 -22 13 -20 7 -60 85
-47 92 5 3 31 9 59 12 41 5 50 3 48 -8 -2 -11 7 -13 40 -11 23 1 42 -2 42 -7
0 -6 11 -22 25 -37 14 -15 25 -25 25 -22 0 3 20 2 45 -2 31 -5 45 -3 42 4 -2
6 -13 12 -25 14 -11 2 -26 9 -32 17 -6 8 -19 11 -27 8 -11 -5 -14 -3 -9 6 5 8
0 18 -13 27 -11 8 -25 23 -31 34 -8 15 -3 22 33 43 23 14 60 48 81 77 l39 51
-16 35 c-17 35 -17 35 -41 17 -14 -10 -30 -28 -37 -40 -7 -13 -18 -23 -25 -23
-6 0 -15 -7 -18 -16 -9 -23 -23 -9 -30 31 -7 36 -22 41 -42 16 -10 -12 -13
-11 -18 7 -4 12 -11 20 -16 17 -14 -9 -28 18 -45 90 -25 105 -25 104 -53 130
-38 35 -50 31 -72 -20 -11 -25 -24 -45 -29 -45 -6 0 -8 -6 -5 -13 2 -7 -4 -24
-16 -37 -11 -13 -20 -26 -20 -30 0 -4 -19 -15 -42 -26 -81 -36 -212 -14 -193
34 9 24 -18 47 -60 51 -22 2 -43 8 -47 14 -4 7 -8 8 -8 2 -1 -20 -20 21 -20
43 0 13 6 22 16 22 11 0 14 6 8 23 -4 12 -11 25 -16 28 -5 3 -2 12 7 19 8 7
15 19 15 26 0 8 4 14 10 14 5 0 22 13 38 28 15 15 47 33 70 40 47 14 50 21 22
47 -11 10 -22 26 -25 35 -4 11 -12 16 -24 13 -9 -2 -23 3 -30 11 -8 9 -21 16
-30 16 -22 1 64 78 95 86 13 4 24 12 24 20 0 18 -37 38 -45 24 -9 -15 -27 -1
-21 17 3 8 1 11 -4 8 -6 -3 -10 -1 -10 4 0 6 7 11 16 11 8 0 13 4 9 10 -3 5
-13 7 -23 4 -15 -5 -15 -4 -2 8 9 7 17 26 18 42 1 16 9 37 17 46 19 21 19 26
-2 34 -9 4 -20 1 -25 -6 -5 -9 -8 -8 -8 6 0 14 6 17 25 14 20 -4 23 -2 14 8
-8 9 -5 18 10 33 16 16 17 21 5 25 -16 6 -19 56 -3 56 5 0 8 -4 5 -9 -8 -13
51 -74 64 -66 5 3 10 2 10 -3 0 -5 -13 -15 -30 -22 -16 -7 -30 -20 -30 -29 1
-14 2 -14 11 2 6 9 14 15 19 12 5 -3 11 -1 14 3 8 14 56 2 56 -13 0 -7 3 -15
8 -18 4 -2 1 -2 -5 -1 -20 5 -43 -7 -43 -22 0 -8 -10 -19 -22 -23 -20 -8 -21
-10 -5 -16 9 -4 17 -13 17 -21 0 -8 5 -14 11 -14 6 0 9 -6 6 -14 -4 -10 2 -16
16 -18 12 -2 22 -10 23 -18 2 -37 17 -117 26 -132 7 -15 4 -18 -13 -18 -35 0
-13 -13 30 -17 35 -3 41 0 60 29 15 24 21 28 21 15 0 -11 6 -17 13 -14 6 2 12
9 12 15 0 26 27 34 126 38 108 3 126 -1 172 -44 l27 -26 1 25 c2 53 6 73 18
77 7 2 17 11 24 18 7 8 20 23 31 34 10 10 16 26 13 34 -3 9 -2 18 3 21 4 3 10
0 12 -7 6 -18 28 0 28 23 0 24 23 71 44 88 8 7 13 18 10 25 -3 7 11 25 31 40
19 15 35 31 35 35 0 10 -104 6 -120 -4 -5 -3 -7 0 -5 7 3 8 -6 25 -20 38 -14
13 -25 34 -25 47 0 26 28 63 48 63 7 0 31 9 54 21 46 23 41 39 -14 43 -76 6
-78 32 -3 41 41 6 62 14 85 37 40 38 36 64 -8 60 -22 -2 -34 2 -38 12 -9 24
-60 19 -102 -9 -20 -14 -42 -25 -48 -25 -16 0 -24 -23 -18 -48 7 -23 -22 -38
-42 -22 -18 16 -44 98 -37 117 5 13 2 15 -15 11 -20 -6 -20 -5 -5 19 10 15 13
27 7 31 -11 8 -12 27 -1 38 12 12 8 24 -8 24 -8 0 -15 -7 -15 -15 0 -11 -5
-12 -26 -5 -14 6 -30 8 -34 5 -17 -11 -51 39 -45 64 5 20 4 22 -8 13 -8 -7
-17 -9 -20 -6 -3 4 -14 3 -24 -1 -10 -5 -22 -9 -28 -10 -5 0 -18 -5 -28 -9 -9
-5 -30 -5 -45 -1 -15 4 -44 8 -64 8 -30 1 -38 5 -38 19 0 11 -7 18 -20 18 -13
0 -20 7 -20 20 0 11 -4 20 -9 20 -12 0 -21 38 -14 57 3 8 12 12 20 9 8 -3 33
7 56 22 23 15 65 38 92 52 45 23 50 28 47 55 -2 17 -11 38 -20 48 -14 16 -14
20 1 53 35 72 10 123 -64 133 -35 5 -48 12 -64 38 -11 18 -26 30 -34 28 -8 -4
-11 0 -8 10 4 8 2 17 -3 20 -6 4 -10 -1 -10 -11 0 -12 -3 -14 -13 -5 -8 6 -23
9 -35 6 -20 -3 -22 0 -22 39 0 54 29 146 45 146 7 0 18 7 25 15 16 20 40 2 40
-30 0 -27 25 -52 35 -35 4 6 20 9 35 6 22 -3 31 0 35 14 8 25 -22 70 -47 70
-24 0 -82 56 -73 70 3 5 3 15 -1 21 -4 7 -16 2 -33 -14 -41 -38 -77 -58 -93
-52 -12 5 -13 15 -6 58 5 29 16 62 23 73 13 20 12 22 -6 27 -13 4 -18 10 -14
17 6 9 2 9 -13 1 -30 -16 -52 -14 -52 5 0 12 -6 15 -25 10 -14 -4 -26 -2 -26
4 -1 5 -2 14 -3 20 0 5 -9 18 -18 29 -28 33 -40 61 -27 61 7 0 -8 20 -33 43
-38 37 -44 48 -41 74 7 47 80 113 132 120 31 4 47 13 59 31 12 19 13 27 4 30
-6 2 -12 10 -12 18 0 10 -8 12 -32 7 -18 -3 -37 -10 -42 -14 -6 -5 -30 -9 -55
-9 -26 0 -71 -7 -101 -15 -62 -17 -114 -20 -106 -6 8 12 -20 22 -39 15 -8 -4
-15 -15 -15 -25 0 -22 -31 -26 -52 -6 -7 6 -30 13 -50 14 -20 1 -52 8 -70 16
-18 8 -41 18 -52 21 -15 5 -16 9 -6 22 19 22 -20 46 -97 60 -62 10 -62 10
-115 -25 -29 -19 -57 -40 -63 -47 -5 -6 -18 -14 -28 -18 -24 -8 -47 46 -47
113 0 40 -3 50 -20 54 -28 7 -26 54 4 92 22 28 27 29 90 27 36 -1 76 2 89 7
22 9 55 -1 68 -21 3 -5 29 -10 58 -12 28 -2 58 -9 65 -15 8 -7 18 -11 22 -9
12 3 108 -34 169 -66 53 -27 112 -38 131 -24 7 5 23 2 39 -6 33 -17 53 -10 98
36 16 16 39 28 54 28 34 0 111 -50 119 -77 3 -12 14 -29 24 -38 17 -16 19 -14
29 37 17 78 55 136 103 158 47 21 71 17 97 -16 10 -13 23 -24 27 -24 20 0 68
196 57 227 -3 6 -44 30 -91 53 -182 88 -177 84 -180 113 -2 15 -7 25 -11 23
-4 -3 -13 -1 -21 5 -10 6 -11 9 -2 9 25 0 11 19 -20 25 -42 9 -50 14 -42 27 4
6 10 5 15 -3 7 -11 9 -11 9 1 0 8 -9 21 -20 28 -13 8 -20 23 -20 42 0 27 -9
35 -32 31 -5 0 -8 6 -8 15 0 13 3 14 13 6 19 -16 59 13 55 41 -2 14 3 23 14
25 13 3 16 -1 12 -15 -5 -14 -4 -15 4 -4 16 22 43 22 70 0 31 -24 42 -24 42 1
0 11 -5 20 -11 20 -7 0 -34 23 -60 50 -47 50 -65 56 -104 40z m0 -30 c3 -5 -1
-10 -9 -10 -9 0 -16 5 -16 10 0 6 4 10 9 10 6 0 13 -4 16 -10z m-711 -615 c3
-8 1 -15 -4 -15 -6 0 -10 7 -10 15 0 8 2 15 4 15 2 0 6 -7 10 -15z m-738 -194
c-3 -4 3 -16 14 -26 21 -19 28 -65 10 -65 -5 0 -10 -11 -10 -25 0 -23 -2 -24
-22 -13 -33 19 -47 40 -48 68 0 29 7 40 35 57 25 15 28 15 21 4z m824 -137 c0
-8 -5 -12 -10 -9 -6 4 -8 11 -5 16 9 14 15 11 15 -7z m-250 -69 c0 -15 -18
-30 -27 -22 -2 3 -2 15 2 26 7 23 25 19 25 -4z m377 -394 c2 -10 17 -24 31
-32 15 -7 31 -15 36 -18 5 -2 6 1 2 7 -4 7 -1 12 9 12 9 0 33 9 55 20 47 24
135 27 185 6 51 -22 62 -86 15 -86 -10 0 -22 -5 -25 -10 -5 -8 -11 -8 -19 0
-11 9 -83 14 -136 10 -8 -1 -25 1 -37 4 -13 2 -23 1 -23 -5 0 -5 -4 -9 -10 -9
-5 0 -7 6 -4 14 10 26 -17 28 -39 3 -18 -21 -24 -23 -34 -12 -8 9 -9 15 0 24
6 6 8 12 4 12 -11 2 -26 6 -34 9 -11 4 -26 7 -39 9 -6 0 -11 12 -11 25 0 24 9
30 55 35 8 0 16 -7 19 -18z m-275 -71 c-6 -16 -11 -20 -16 -11 -4 6 -2 19 5
27 16 20 21 12 11 -16z m38 0 c0 -5 -2 -10 -4 -10 -3 0 -8 5 -11 10 -3 6 -1
10 4 10 6 0 11 -4 11 -10z m484 -86 c3 -8 2 -12 -4 -9 -6 3 -10 10 -10 16 0
14 7 11 14 -7z m142 -21 c-5 -12 5 -27 35 -52 35 -31 41 -43 44 -82 3 -32 -2
-54 -15 -77 -21 -35 -47 -40 -97 -21 -26 10 -27 12 -10 23 9 7 17 18 17 23 0
16 -36 44 -45 36 -4 -5 -5 -3 -2 3 4 7 0 17 -8 24 -19 16 -19 64 0 80 8 6 14
15 13 18 -3 28 4 34 32 29 17 -4 30 -2 30 3 0 6 3 10 6 10 3 0 3 -8 0 -17z
m-358 -125 c10 -10 17 -10 31 -1 15 10 22 9 30 -1 12 -15 6 -22 -41 -46 -33
-16 -36 -40 -8 -47 20 -5 20 -6 -1 -24 -12 -11 -25 -19 -29 -19 -15 0 -60 42
-60 56 0 8 -4 14 -10 14 -17 0 -11 58 8 69 24 14 65 14 80 -1z m86 -39 c-3 -6
-1 -29 7 -51 11 -35 11 -41 -7 -58 -10 -10 -30 -20 -44 -22 -35 -4 -38 26 -5
56 15 14 24 30 20 36 -3 6 -10 8 -15 5 -4 -3 -11 2 -14 11 -5 13 -1 15 21 11
16 -4 22 -4 15 -1 -15 7 -6 24 14 24 9 0 12 -5 8 -11z m-584 -69 c0 -5 -7 -10
-15 -10 -8 0 -15 5 -15 10 0 6 7 10 15 10 8 0 15 -4 15 -10z m1190 -76 c0 -8
-5 -12 -10 -9 -6 4 -8 11 -5 16 9 14 15 11 15 -7z m-333 -292 c12 -7 34 -33
49 -58 26 -44 26 -45 8 -66 -25 -27 -59 -40 -119 -45 -27 -3 -54 -9 -59 -13
-15 -14 13 -40 43 -40 15 0 31 -4 37 -9 5 -5 24 -12 42 -16 27 -5 32 -4 32 12
0 11 12 0 35 -31 27 -38 32 -52 23 -59 -9 -6 -8 -7 4 -4 22 8 41 -17 33 -43
-9 -27 19 -37 41 -15 31 30 109 -6 165 -76 27 -34 33 -51 35 -102 2 -34 8 -78
14 -97 23 -79 3 -76 -37 6 -29 60 -41 64 -91 34 -18 -11 -37 -18 -43 -15 -14
9 -49 82 -49 103 0 10 -6 27 -14 38 -13 17 -14 15 -9 -23 4 -30 2 -43 -6 -43
-7 0 -10 -3 -7 -8 2 -4 -2 -16 -10 -26 -10 -15 -16 -16 -28 -7 -18 15 -30 -13
-16 -39 6 -11 6 -21 1 -24 -13 -9 4 -62 18 -58 7 1 10 -2 6 -8 -3 -5 5 -14 19
-20 14 -5 26 -12 26 -15 0 -4 -4 -4 -9 0 -5 3 -12 1 -16 -5 -3 -5 1 -10 9 -10
22 0 20 -27 -1 -33 -13 -3 -12 -5 5 -6 14 -1 22 -6 19 -13 -2 -7 -16 -12 -31
-10 -15 2 -26 -2 -26 -9 0 -16 -31 -38 -54 -39 -12 0 -16 -5 -13 -14 4 -10 1
-13 -7 -10 -13 5 -66 -42 -66 -59 0 -4 -4 -5 -10 -2 -5 3 -10 -1 -10 -10 0 -8
-7 -18 -15 -21 -8 -4 -15 -13 -15 -21 0 -29 -111 -102 -159 -104 -12 0 -12 -2
4 -9 13 -6 15 -9 5 -9 -8 -1 -33 15 -55 35 l-40 35 18 30 c21 38 14 51 -21 38
l-27 -10 23 24 c15 16 20 27 13 32 -6 3 -9 10 -6 15 10 16 -6 38 -24 33 -15
-4 -17 1 -13 26 3 24 1 31 -13 31 -13 0 -10 8 14 37 38 46 39 53 2 53 -16 0
-31 5 -33 11 -2 7 -12 7 -31 0 -18 -7 -27 -7 -27 -1 0 18 51 31 106 28 41 -2
54 -7 58 -20 7 -27 41 -22 55 8 11 26 12 26 26 8 7 -10 16 -16 20 -12 4 4 -5
22 -19 41 -14 19 -26 39 -26 45 0 17 -46 14 -64 -4 -9 -8 -16 -11 -16 -5 0 21
-21 11 -30 -14 -11 -29 -22 -30 -79 -10 -42 14 -42 14 -79 -19 -53 -47 -129
-89 -144 -80 -19 12 -56 18 -121 19 -56 0 -57 0 -63 33 -4 18 -10 34 -14 37
-5 3 -6 13 -4 23 7 25 -32 80 -61 88 -35 9 -31 31 11 56 44 26 31 47 -15 24
-25 -13 -31 -23 -32 -49 -1 -50 -20 -91 -66 -143 -24 -26 -43 -53 -43 -59 0
-6 14 -19 30 -28 23 -14 28 -22 21 -35 -4 -9 -7 -22 -4 -28 2 -6 -3 -17 -12
-24 -37 -31 -2 -191 45 -203 11 -3 20 0 20 5 0 16 69 2 91 -18 11 -9 19 -27
19 -40 0 -17 -4 -21 -20 -17 -11 3 -27 15 -35 26 -8 11 -25 21 -39 23 -23 2
-25 0 -23 -39 1 -29 -2 -41 -10 -40 -18 4 -16 -12 3 -32 11 -11 25 -14 45 -10
36 8 38 -2 3 -15 -36 -14 -91 -2 -115 24 -14 14 -18 16 -14 5 4 -11 -1 -18
-16 -22 -34 -9 -127 58 -173 125 -31 45 -40 69 -44 111 -5 58 15 143 49 209
16 32 87 92 127 108 7 3 24 31 37 63 24 60 47 85 106 117 46 24 54 44 24 60
-18 9 -22 19 -19 38 7 36 24 54 46 49 10 -3 20 -2 23 2 6 10 65 1 65 -9 0 -5
14 -11 30 -15 17 -4 30 -11 30 -17 0 -6 -7 -8 -15 -4 -9 3 -15 0 -15 -10 0 -8
-4 -12 -10 -9 -5 3 -10 1 -10 -4 0 -6 -11 -11 -24 -11 -13 0 -26 -7 -30 -15
-3 -8 0 -15 7 -15 8 0 8 -3 -2 -9 -11 -7 -9 -10 9 -16 15 -5 19 -10 11 -15 -7
-4 14 -10 46 -14 32 -3 81 -8 108 -11 67 -8 84 4 61 40 -12 19 -23 24 -37 20
-15 -5 -19 -2 -19 15 0 12 -11 46 -25 76 -14 30 -25 59 -25 65 0 6 -4 8 -9 5
-10 -6 -34 54 -52 129 -7 28 -21 62 -31 76 -34 45 5 103 69 103 44 0 77 -35
94 -97 17 -65 60 -170 78 -190 15 -18 16 -18 33 3 10 12 18 19 18 15 0 -4 18
9 40 29 22 19 45 34 52 31 8 -2 24 19 41 55 20 43 41 69 76 94 27 20 53 36 59
36 5 0 15 7 22 15 7 8 16 13 20 10 5 -3 21 0 37 6 69 29 139 25 200 -9z
m-1267 -117 c0 -7 -7 -15 -15 -19 -15 -5 -22 24 -9 37 9 9 24 -2 24 -18z
m1315 -65 c3 -5 -1 -10 -9 -10 -8 0 -18 5 -21 10 -3 6 1 10 9 10 8 0 18 -4 21
-10z m-1297 -125 c0 -14 -4 -25 -8 -25 -4 0 -10 -14 -14 -31 -6 -32 -26 -31
-26 2 0 24 27 79 39 79 5 0 9 -11 9 -25z m2182 -205 c0 -5 -7 -10 -15 -10 -8
0 -15 5 -15 10 0 6 7 10 15 10 8 0 15 -4 15 -10z m-140 -56 c0 -8 -5 -12 -10
-9 -6 4 -8 11 -5 16 9 14 15 11 15 -7z m-382 -32 c6 -18 -15 -14 -22 4 -4 10
-1 14 6 12 6 -2 14 -10 16 -16z m-288 -62 c8 -5 11 -10 5 -10 -5 0 -17 5 -25
10 -8 5 -10 10 -5 10 6 0 17 -5 25 -10z m50 -31 c0 -5 4 -8 9 -5 4 3 6 -5 4
-19 -3 -15 -10 -22 -19 -18 -16 6 -19 53 -4 53 6 0 10 -5 10 -11z m-625 -119
c3 -6 -1 -7 -9 -4 -18 7 -21 14 -7 14 6 0 13 -4 16 -10z m-5 -180 c0 -5 -4
-10 -10 -10 -5 0 -10 5 -10 10 0 6 5 10 10 10 6 0 10 -4 10 -10z m20 -39 c0
-19 -7 -23 -65 -35 l-30 -7 29 20 c17 11 33 18 37 15 4 -2 9 3 13 11 8 21 16
19 16 -4z m55 -1 c-3 -5 -12 -10 -18 -10 -7 0 -6 4 3 10 19 12 23 12 15 0z
m-349 -49 c36 -28 87 -105 73 -110 -5 -1 -18 4 -28 13 -10 9 -23 16 -29 16 -6
0 -13 9 -17 19 -3 11 -14 23 -24 26 -9 3 -27 18 -39 34 l-21 29 28 -2 c15 -1
41 -12 57 -25z m364 4 c0 -8 -9 -15 -20 -15 -25 0 -26 17 -2 23 9 3 18 5 20 6
1 0 2 -6 2 -14z m-420 -85 c0 -13 -19 -22 -30 -15 -14 9 0 34 16 28 8 -3 14
-9 14 -13z m40 -70 c0 -5 -4 -10 -10 -10 -5 0 -10 5 -10 10 0 6 5 10 10 10 6
0 10 -4 10 -10z m680 -45 c0 -8 -4 -15 -10 -15 -5 0 -10 7 -10 15 0 8 5 15 10
15 6 0 10 -7 10 -15z m140 -65 c0 -5 -12 -10 -26 -10 -14 0 -23 4 -19 10 3 6
15 10 26 10 10 0 19 -4 19 -10z m-1763 -282 c-3 -8 -6 -5 -6 6 -1 11 2 17 5
13 3 -3 4 -12 1 -19z m-673 -43 c-4 -8 -15 -15 -25 -15 -10 0 -19 7 -19 15 0
9 9 15 25 15 18 0 23 -4 19 -15z m646 -10 c0 -7 -39 -45 -47 -45 -5 0 -15 -12
-22 -27 -11 -24 -14 -25 -22 -11 -13 23 2 56 36 77 24 15 55 18 55 6z m2270
-150 c16 -19 5 -50 -37 -96 -40 -44 -53 -48 -71 -19 -7 11 -18 20 -26 20 -8 0
-16 7 -20 15 -3 8 -2 15 2 15 4 0 12 10 17 22 11 25 67 57 101 58 12 0 27 -7
34 -15z m-740 -45 c0 -5 -9 -14 -21 -20 -19 -11 -20 -10 -9 9 11 22 30 29 30
11z m798 -231 c-2 -6 -8 -10 -13 -10 -5 0 -11 4 -13 10 -2 6 4 11 13 11 9 0
15 -5 13 -11z m-1092 -421 c-1 -7 -7 -23 -14 -34 -6 -12 -9 -24 -6 -26 7 -7
-59 -38 -68 -32 -11 7 22 62 51 85 27 22 40 24 37 7z m-599 -84 c-9 -9 -28 6
-21 18 4 6 10 6 17 -1 6 -6 8 -13 4 -17z m517 -63 c3 -4 0 -16 -7 -25 -11 -14
-12 -13 -12 9 0 25 9 33 19 16z m-557 -26 c8 -9 13 -19 10 -22 -10 -10 -37 6
-37 22 0 19 7 19 27 0z m843 -49 c0 -8 -5 -18 -11 -22 -14 -8 -33 11 -25 25
10 16 36 13 36 -3z m-585 -156 c-3 -5 -11 -10 -16 -10 -6 0 -7 5 -4 10 3 6 11
10 16 10 6 0 7 -4 4 -10z m1485 -67 c0 -12 5 -25 10 -28 6 -3 10 -15 10 -26 0
-25 -32 -22 -74 6 -17 11 -38 18 -48 17 -11 -2 -18 3 -18 12 0 9 -5 15 -11 14
-6 -2 -14 3 -16 10 -4 11 -1 12 14 3 15 -8 25 -7 39 4 11 7 36 13 57 12 31 -1
37 -5 37 -24z m-160 -3 c0 -5 -2 -10 -4 -10 -3 0 -8 5 -11 10 -3 6 -1 10 4 10
6 0 11 -4 11 -10z m-1270 -19 c0 -5 -7 -12 -16 -15 -22 -9 -24 -8 -24 9 0 8 9
15 20 15 11 0 20 -4 20 -9z m1335 -121 c3 -5 1 -10 -4 -10 -6 0 -11 5 -11 10
0 6 2 10 4 10 3 0 8 -4 11 -10z m-152 -64 c3 -8 -1 -22 -9 -33 -9 -10 -13 -12
-9 -5 3 6 3 17 0 23 -10 15 -45 -20 -45 -45 0 -17 -2 -18 -10 -6 -7 11 -1 23
22 47 35 37 43 40 51 19z m-406 -208 c-17 -11 -75 -10 -81 1 -3 5 16 8 43 8
27 -1 44 -5 38 -9z m48 -51 c10 -18 22 -34 25 -37 4 -3 23 -30 41 -60 35 -57
49 -131 29 -155 -5 -6 -11 -20 -13 -31 -3 -25 -51 -107 -72 -124 -15 -12 -16
-11 -13 5 1 11 -2 20 -9 20 -20 0 -24 12 -8 25 16 14 20 40 6 40 -17 0 -22 34
-7 45 13 10 12 13 -4 23 -14 9 -20 8 -24 -1 -3 -7 -5 -3 -4 8 3 30 -42 125
-59 125 -8 0 -11 5 -8 10 7 11 -3 16 -56 24 -29 5 -35 10 -34 28 2 24 48 58
78 58 9 0 17 5 17 10 0 16 37 12 54 -6 15 -14 16 -13 16 10 0 33 20 26 45 -17z
m1125 -41 c0 -11 -19 -15 -25 -6 -3 5 1 10 9 10 9 0 16 -2 16 -4z m-690 -106
c0 -5 -2 -10 -4 -10 -3 0 -8 5 -11 10 -3 6 -1 10 4 10 6 0 11 -4 11 -10z m737
-147 c-46 -88 -165 -155 -243 -136 -48 11 -44 27 8 34 53 7 135 51 196 106 50
44 63 43 39 -4z m233 22 c0 -8 -4 -15 -10 -15 -5 0 -7 7 -4 15 4 8 8 15 10 15
2 0 4 -7 4 -15z m-1010 -89 c0 -2 -7 -6 -15 -10 -8 -3 -15 -1 -15 4 0 6 7 10
15 10 8 0 15 -2 15 -4z m-399 -81 c1 -17 -18 -17 -25 0 -4 11 -1 15 10 13 8
-2 15 -7 15 -13z m1024 -15 c-3 -5 -13 -10 -21 -10 -8 0 -12 5 -9 10 3 6 13
10 21 10 8 0 12 -4 9 -10z m-125 -20 c0 -5 -6 -10 -14 -10 -8 0 -18 5 -21 10
-3 6 3 10 14 10 12 0 21 -4 21 -10z m265 0 c-3 -5 -13 -10 -21 -10 -8 0 -12 5
-9 10 3 6 13 10 21 10 8 0 12 -4 9 -10z m-755 -81 c0 -8 -47 -29 -65 -29 -20
0 -19 10 3 26 17 13 62 15 62 3z m-750 -113 c0 -2 -7 -7 -16 -10 -8 -3 -12 -2
-9 4 6 10 25 14 25 6z m1603 -143 c-7 -2 -19 -2 -25 0 -7 3 -2 5 12 5 14 0 19
-2 13 -5z"/>
<path d="M9477 4999 c-3 -13 -1 -19 6 -16 15 5 22 37 9 37 -5 0 -12 -9 -15
-21z"/>
<path d="M9615 4819 c-10 -15 3 -25 16 -12 7 7 7 13 1 17 -6 3 -14 1 -17 -5z"/>
<path d="M8924 4798 l-19 -23 23 19 c12 11 22 21 22 23 0 8 -8 2 -26 -19z"/>
<path d="M9560 4793 c0 -7 9 -13 20 -13 11 0 20 6 20 13 0 7 -9 13 -20 13 -11
0 -20 -6 -20 -13z"/>
<path d="M9230 4762 c0 -5 -11 -14 -25 -20 -29 -13 -33 -32 -7 -32 10 0 26 14
35 30 10 17 13 30 8 30 -6 0 -11 -4 -11 -8z"/>
<path d="M9607 4739 c6 -6 9 -19 6 -28 -4 -13 -2 -13 7 2 12 19 6 37 -13 37
-8 0 -8 -3 0 -11z"/>
<path d="M8394 4389 c-7 -11 26 -40 38 -33 10 7 -1 32 -17 38 -8 3 -17 1 -21
-5z"/>
<path d="M9381 2086 c-9 -10 -8 -15 4 -20 8 -3 22 -3 30 0 12 5 12 8 0 20 -17
17 -20 17 -34 0z"/>
<path d="M9292 7684 c-20 -14 -21 -17 -7 -30 24 -24 59 -14 63 19 4 32 -20 37
-56 11z"/>
<path d="M10162 7675 c12 -13 -55 -44 -73 -34 -11 5 -24 0 -42 -17 -32 -30
-32 -29 -7 -79 11 -22 20 -45 20 -52 0 -16 37 -36 51 -27 6 4 15 0 20 -7 7
-11 9 -10 9 4 0 10 8 17 20 17 15 0 26 13 40 45 14 33 28 48 53 59 43 17 51
30 42 64 -4 16 -9 21 -13 15 -7 -12 -25 -9 -102 13 -14 4 -22 3 -18 -1z"/>
<path d="M10640 7661 c0 -11 4 -22 9 -25 4 -3 6 6 3 19 -5 30 -12 33 -12 6z"/>
<path d="M9987 7633 c-12 -11 -8 -23 8 -23 8 0 15 7 15 15 0 16 -12 20 -23 8z"/>
<path d="M8490 7610 c0 -5 7 -10 16 -10 8 0 12 5 9 10 -3 6 -10 10 -16 10 -5
0 -9 -4 -9 -10z"/>
<path d="M10920 7585 c-21 -25 -113 -63 -145 -60 -28 3 -29 3 -10 -11 35 -26
118 4 155 56 22 31 22 42 0 15z"/>
<path d="M8087 7356 c-4 -9 2 -17 15 -21 23 -8 44 8 34 24 -10 16 -43 13 -49
-3z"/>
<path d="M7933 7282 c-29 -4 -41 -21 -48 -66 l-6 -37 30 15 c29 15 48 48 42
75 -1 7 2 10 8 7 5 -4 12 -3 15 2 5 9 -4 10 -41 4z"/>
<path d="M7293 7167 c-25 -13 -48 -50 -40 -64 3 -5 39 -4 84 2 67 9 78 14 81
32 5 35 -75 54 -125 30z"/>
<path d="M10042 7111 c2 -7 7 -12 11 -12 12 1 9 15 -3 20 -7 2 -11 -2 -8 -8z"/>
<path d="M11307 6879 c7 -7 15 -10 18 -7 3 3 -2 9 -12 12 -14 6 -15 5 -6 -5z"/>
<path d="M10619 6738 c-1 -7 -1 -16 0 -20 0 -5 -3 -8 -9 -8 -16 0 -12 -36 5
-50 12 -10 19 -10 27 -2 7 7 24 12 39 12 15 0 30 4 33 9 8 12 -47 21 -61 10
-17 -15 -27 9 -12 28 7 8 22 19 34 23 16 7 12 9 -17 9 -24 1 -38 -4 -39 -11z"/>
<path d="M10590 6640 c-8 -5 -11 -12 -7 -16 4 -4 13 -2 19 4 15 15 7 24 -12
12z"/>
<path d="M10137 6502 c-17 -2 -25 -8 -21 -14 5 -8 1 -9 -11 -4 -15 5 -16 4 -5
-9 7 -8 15 -13 19 -11 7 5 8 -2 13 -71 2 -35 -2 -48 -23 -69 -31 -31 -87 -45
-154 -39 l-50 5 45 -15 c25 -8 56 -15 70 -15 33 0 47 -10 58 -40 9 -24 10 -23
23 20 8 25 29 61 50 82 37 38 40 45 42 114 2 49 -17 70 -56 66z"/>
<path d="M11303 6494 c-6 -16 38 -65 69 -77 14 -5 14 0 -4 44 -21 50 -52 66
-65 33z"/>
<path d="M11460 6447 c0 -19 16 -31 24 -18 3 5 -1 14 -9 21 -12 10 -15 10 -15
-3z"/>
<path d="M10058 6125 c2 -14 6 -25 8 -25 2 0 4 11 4 25 0 14 -4 25 -9 25 -4 0
-6 -11 -3 -25z"/>
<path d="M10926 6000 c-39 -43 -45 -60 -20 -60 26 0 54 19 48 34 -3 8 3 16 15
19 24 6 29 47 7 47 -7 0 -30 -18 -50 -40z"/>
<path d="M7747 6010 c3 -11 1 -20 -5 -20 -6 0 -13 8 -15 18 -4 15 -5 15 -6 0
-1 -11 -14 -18 -40 -23 -21 -3 -48 -15 -59 -25 -11 -10 -23 -16 -26 -13 -3 4
-6 -1 -6 -10 0 -9 -4 -17 -10 -17 -5 0 -10 -4 -10 -9 0 -9 39 -24 55 -21 6 1
19 3 31 4 16 2 121 96 107 96 -2 0 1 9 7 20 9 17 8 20 -9 20 -14 0 -18 -5 -14
-20z m-12 -41 c-4 -5 -12 -9 -18 -8 -9 0 -8 2 1 6 6 2 9 10 6 15 -4 7 -2 8 5
4 6 -4 9 -12 6 -17z"/>
<path d="M7826 5884 c-3 -9 -3 -20 0 -25 3 -6 0 -16 -6 -24 -7 -9 -10 -28 -7
-45 4 -16 2 -32 -4 -36 -14 -8 29 -44 46 -38 7 3 23 1 34 -6 14 -7 21 -7 21 0
0 5 7 10 16 10 23 0 39 21 42 56 2 26 -1 33 -21 38 -13 3 -44 24 -69 46 -37
32 -47 37 -52 24z"/>
<path d="M10360 5815 c0 -8 5 -15 10 -15 6 0 10 7 10 15 0 8 -4 15 -10 15 -5
0 -10 -7 -10 -15z"/>
<path d="M10515 5741 c-10 -17 12 -21 25 -6 10 12 10 15 -3 15 -9 0 -18 -4
-22 -9z"/>
<path d="M10485 5710 c-3 -5 -2 -10 4 -10 5 0 13 5 16 10 3 6 2 10 -4 10 -5 0
-13 -4 -16 -10z"/>
<path d="M7587 5650 c-3 -13 -2 -29 3 -34 14 -14 17 -5 10 29 -6 30 -6 30 -13
5z"/>
<path d="M7782 5641 c2 -7 7 -12 11 -12 12 1 9 15 -3 20 -7 2 -11 -2 -8 -8z"/>
<path d="M7853 5495 c-7 -19 -5 -20 30 -29 33 -8 39 17 8 34 -26 13 -31 13
-38 -5z"/>
<path d="M10095 5440 c-3 -5 -17 -10 -31 -10 -13 0 -24 -6 -24 -12 0 -17 15
-40 26 -40 5 0 20 -5 33 -10 37 -14 71 8 41 27 -5 3 -6 13 -3 21 9 24 -29 45
-42 24z"/>
<path d="M10210 5350 c0 -5 5 -10 11 -10 5 0 7 5 4 10 -3 6 -8 10 -11 10 -2 0
-4 -4 -4 -10z"/>
<path d="M11191 5320 c10 -21 19 -46 19 -55 0 -17 9 -19 30 -5 12 8 13 13 2
27 -7 10 -20 30 -30 45 -27 44 -43 34 -21 -12z"/>
<path d="M10353 5210 c-10 -15 -9 -17 8 -13 20 5 25 18 11 27 -4 2 -13 -4 -19
-14z"/>
<path d="M10638 5028 c13 -43 64 -120 72 -108 11 18 1 47 -29 76 -14 14 -26
31 -26 37 0 6 -5 12 -12 14 -8 3 -9 -3 -5 -19z"/>
<path d="M10615 4990 c-3 -5 1 -10 10 -10 9 0 13 5 10 10 -3 6 -8 10 -10 10
-2 0 -7 -4 -10 -10z"/>
<path d="M10730 4922 c0 -5 7 -9 15 -9 8 0 12 4 9 9 -3 4 -9 8 -15 8 -5 0 -9
-4 -9 -8z"/>
<path d="M10857 4655 c-8 -8 -18 -11 -22 -7 -5 4 -5 2 -1 -5 4 -7 1 -25 -7
-40 -8 -15 -12 -34 -10 -41 6 -16 43 30 43 54 0 9 7 26 17 36 19 21 1 25 -20
3z"/>
<path d="M10506 4597 c-52 -61 -57 -76 -21 -73 24 3 24 3 8 -25 -9 -16 -32
-45 -50 -66 -18 -20 -33 -41 -33 -47 0 -5 -10 -20 -22 -33 -20 -21 -21 -27
-10 -71 16 -68 27 -132 31 -186 1 -15 4 -16 16 -6 8 7 12 16 9 21 -3 5 2 9 11
9 9 0 13 4 10 10 -3 6 1 7 9 4 10 -4 16 -1 16 9 0 10 -7 13 -20 10 -36 -9 -33
23 7 83 32 49 50 63 117 98 70 36 81 45 93 81 8 22 15 75 17 117 2 42 7 81 11
87 11 18 -28 12 -59 -8 -17 -11 -33 -18 -36 -16 -4 2 -22 -22 -40 -53 -60
-101 -63 -104 -55 -52 13 83 16 93 31 122 25 49 9 43 -40 -15z"/>
<path d="M10784 4481 c-13 -39 -16 -57 -8 -54 7 2 15 14 19 26 30 99 22 120
-11 28z"/>
<path d="M10440 4495 c0 -8 4 -15 9 -15 5 0 11 7 15 15 3 9 0 15 -9 15 -8 0
-15 -7 -15 -15z"/>
<path d="M11130 4301 c0 -10 24 -21 47 -21 13 0 13 3 3 15 -13 16 -50 21 -50
6z"/>
<path d="M7070 4185 c0 -8 5 -15 10 -15 6 0 10 7 10 15 0 8 -4 15 -10 15 -5 0
-10 -7 -10 -15z"/>
<path d="M10887 4153 c-15 -14 -5 -29 34 -53 40 -25 52 -49 52 -103 0 -22 6
-29 26 -33 14 -2 46 -15 70 -27 25 -12 50 -22 57 -22 17 0 94 -118 94 -144 0
-46 23 -160 31 -155 5 3 12 -2 15 -10 3 -9 14 -16 24 -16 10 0 20 -7 24 -15 6
-17 66 -21 66 -4 0 5 5 7 12 3 8 -5 9 0 6 14 -4 12 -2 20 2 17 5 -3 11 -1 15
5 3 5 0 10 -8 10 -21 0 -89 175 -91 235 -1 13 -9 21 -23 23 -13 2 -20 8 -17
16 3 8 -7 23 -22 35 -14 11 -24 27 -21 34 3 8 -11 23 -34 38 -21 13 -39 30
-39 38 0 8 -7 11 -20 8 -11 -3 -23 -1 -26 4 -3 5 -23 9 -45 9 -22 0 -39 5 -39
11 0 7 12 10 28 7 39 -6 56 14 28 32 -11 8 -31 13 -43 11 -13 -1 -23 2 -23 7
0 23 -114 45 -133 25z m123 -109 c0 -2 -7 -4 -15 -4 -8 0 -15 4 -15 10 0 5 7
7 15 4 8 -4 15 -8 15 -10z m300 -414 c0 -11 -4 -20 -10 -20 -5 0 -10 9 -10 20
0 11 5 20 10 20 6 0 10 -9 10 -20z"/>
<path d="M10667 4053 c-12 -12 -7 -22 8 -17 8 4 15 10 15 15 0 11 -14 12 -23
2z"/>
<path d="M9855 3961 c-10 -16 -30 -35 -44 -41 -37 -17 -12 -34 38 -25 29 5 48
16 66 38 26 34 24 42 -15 52 -20 4 -29 0 -45 -24z"/>
<path d="M10782 3958 c-23 -30 -41 -77 -49 -135 -9 -58 -3 -84 10 -48 4 8 36
29 72 48 l67 33 -24 30 c-13 16 -30 41 -37 57 -16 30 -24 33 -39 15z m38 -68
c0 -5 -7 -7 -15 -4 -8 4 -15 8 -15 10 0 2 7 4 15 4 8 0 15 -4 15 -10z"/>
<path d="M10405 3900 c3 -5 8 -10 11 -10 2 0 4 5 4 10 0 6 -5 10 -11 10 -5 0
-7 -4 -4 -10z"/>
<path d="M7250 3775 c7 -8 16 -12 21 -9 13 8 1 24 -18 24 -13 0 -13 -3 -3 -15z"/>
<path d="M11121 3603 c-11 -21 -20 -34 -21 -30 0 4 -9 3 -20 -3 -10 -6 -24
-28 -30 -50 -12 -46 0 -79 48 -127 28 -27 46 -68 55 -123 4 -24 4 -24 6 3 0
16 7 27 15 27 29 0 44 28 40 75 -3 27 0 45 6 45 16 0 12 30 -5 36 -8 4 -15 12
-15 19 0 7 -6 18 -14 25 -8 6 -12 18 -9 25 3 8 -4 29 -14 47 -11 18 -18 41
-16 51 7 29 -5 19 -26 -20z"/>
<path d="M9552 3050 c10 -39 28 -55 28 -24 0 11 6 14 20 9 11 -3 20 -2 20 2 0
18 -26 41 -51 47 -27 6 -27 6 -17 -34z"/>
<path d="M8296 2991 c-4 -7 -5 -15 -2 -18 9 -9 19 4 14 18 -4 11 -6 11 -12 0z"/>
<path d="M10837 2383 c-4 -3 -7 -11 -7 -17 0 -6 5 -5 12 2 6 6 9 14 7 17 -3 3
-9 2 -12 -2z"/>
<path d="M8585 2270 c-3 -5 -1 -10 4 -10 6 0 11 5 11 10 0 6 -2 10 -4 10 -3 0
-8 -4 -11 -10z"/>
<path d="M8596 1936 c3 -9 11 -16 16 -16 13 0 5 23 -10 28 -7 2 -10 -2 -6 -12z"/>
<path d="M10903 1583 c-7 -2 -13 -9 -13 -14 0 -11 40 -12 58 0 22 14 -17 26
-45 14z"/>
</g>
</svg>
